G04 #@! TF.GenerationSoftware,KiCad,Pcbnew,no-vcs-found-7664~57~ubuntu16.10.1*
G04 #@! TF.CreationDate,2017-02-19T11:00:57+01:00*
G04 #@! TF.ProjectId,pulseboard,70756C7365626F6172642E6B69636164,rev?*
G04 #@! TF.FileFunction,Legend,Bot*
G04 #@! TF.FilePolarity,Positive*
%FSLAX46Y46*%
G04 Gerber Fmt 4.6, Leading zero omitted, Abs format (unit mm)*
G04 Created by KiCad (PCBNEW no-vcs-found-7664~57~ubuntu16.10.1) date Sun Feb 19 11:00:57 2017*
%MOMM*%
%LPD*%
G01*
G04 APERTURE LIST*
%ADD10C,0.100000*%
%ADD11C,0.300000*%
%ADD12C,0.150000*%
G04 APERTURE END LIST*
D10*
D11*
X161978582Y-66744485D02*
X162050011Y-66958771D01*
X162050011Y-67315914D01*
X161978582Y-67458771D01*
X161907154Y-67530200D01*
X161764297Y-67601628D01*
X161621440Y-67601628D01*
X161478582Y-67530200D01*
X161407154Y-67458771D01*
X161335725Y-67315914D01*
X161264297Y-67030200D01*
X161192868Y-66887342D01*
X161121440Y-66815914D01*
X160978582Y-66744485D01*
X160835725Y-66744485D01*
X160692868Y-66815914D01*
X160621440Y-66887342D01*
X160550011Y-67030200D01*
X160550011Y-67387342D01*
X160621440Y-67601628D01*
X161978582Y-68815914D02*
X162050011Y-68673057D01*
X162050011Y-68387342D01*
X161978582Y-68244485D01*
X161835725Y-68173057D01*
X161264297Y-68173057D01*
X161121440Y-68244485D01*
X161050011Y-68387342D01*
X161050011Y-68673057D01*
X161121440Y-68815914D01*
X161264297Y-68887342D01*
X161407154Y-68887342D01*
X161550011Y-68173057D01*
X161050011Y-69530200D02*
X162050011Y-69530200D01*
X161192868Y-69530200D02*
X161121440Y-69601628D01*
X161050011Y-69744485D01*
X161050011Y-69958771D01*
X161121440Y-70101628D01*
X161264297Y-70173057D01*
X162050011Y-70173057D01*
X161978582Y-70815914D02*
X162050011Y-70958771D01*
X162050011Y-71244485D01*
X161978582Y-71387342D01*
X161835725Y-71458771D01*
X161764297Y-71458771D01*
X161621440Y-71387342D01*
X161550011Y-71244485D01*
X161550011Y-71030200D01*
X161478582Y-70887342D01*
X161335725Y-70815914D01*
X161264297Y-70815914D01*
X161121440Y-70887342D01*
X161050011Y-71030200D01*
X161050011Y-71244485D01*
X161121440Y-71387342D01*
X162050011Y-72315914D02*
X161978582Y-72173057D01*
X161907154Y-72101628D01*
X161764297Y-72030200D01*
X161335725Y-72030200D01*
X161192868Y-72101628D01*
X161121440Y-72173057D01*
X161050011Y-72315914D01*
X161050011Y-72530200D01*
X161121440Y-72673057D01*
X161192868Y-72744485D01*
X161335725Y-72815914D01*
X161764297Y-72815914D01*
X161907154Y-72744485D01*
X161978582Y-72673057D01*
X162050011Y-72530200D01*
X162050011Y-72315914D01*
X162050011Y-73458771D02*
X161050011Y-73458771D01*
X161335725Y-73458771D02*
X161192868Y-73530200D01*
X161121440Y-73601628D01*
X161050011Y-73744485D01*
X161050011Y-73887342D01*
X161978582Y-74315914D02*
X162050011Y-74458771D01*
X162050011Y-74744485D01*
X161978582Y-74887342D01*
X161835725Y-74958771D01*
X161764297Y-74958771D01*
X161621440Y-74887342D01*
X161550011Y-74744485D01*
X161550011Y-74530200D01*
X161478582Y-74387342D01*
X161335725Y-74315914D01*
X161264297Y-74315914D01*
X161121440Y-74387342D01*
X161050011Y-74530200D01*
X161050011Y-74744485D01*
X161121440Y-74887342D01*
X160550011Y-76744485D02*
X161764297Y-76744485D01*
X161907154Y-76815914D01*
X161978582Y-76887342D01*
X162050011Y-77030200D01*
X162050011Y-77315914D01*
X161978582Y-77458771D01*
X161907154Y-77530200D01*
X161764297Y-77601628D01*
X160550011Y-77601628D01*
X161050011Y-78315914D02*
X162050011Y-78315914D01*
X161192868Y-78315914D02*
X161121440Y-78387342D01*
X161050011Y-78530200D01*
X161050011Y-78744485D01*
X161121440Y-78887342D01*
X161264297Y-78958771D01*
X162050011Y-78958771D01*
X162050011Y-79887342D02*
X161978582Y-79744485D01*
X161835725Y-79673057D01*
X160550011Y-79673057D01*
X161978582Y-81030200D02*
X162050011Y-80887342D01*
X162050011Y-80601628D01*
X161978582Y-80458771D01*
X161835725Y-80387342D01*
X161264297Y-80387342D01*
X161121440Y-80458771D01*
X161050011Y-80601628D01*
X161050011Y-80887342D01*
X161121440Y-81030200D01*
X161264297Y-81101628D01*
X161407154Y-81101628D01*
X161550011Y-80387342D01*
X162050011Y-82387342D02*
X161264297Y-82387342D01*
X161121440Y-82315914D01*
X161050011Y-82173057D01*
X161050011Y-81887342D01*
X161121440Y-81744485D01*
X161978582Y-82387342D02*
X162050011Y-82244485D01*
X162050011Y-81887342D01*
X161978582Y-81744485D01*
X161835725Y-81673057D01*
X161692868Y-81673057D01*
X161550011Y-81744485D01*
X161478582Y-81887342D01*
X161478582Y-82244485D01*
X161407154Y-82387342D01*
X161978582Y-83030200D02*
X162050011Y-83173057D01*
X162050011Y-83458771D01*
X161978582Y-83601628D01*
X161835725Y-83673057D01*
X161764297Y-83673057D01*
X161621440Y-83601628D01*
X161550011Y-83458771D01*
X161550011Y-83244485D01*
X161478582Y-83101628D01*
X161335725Y-83030200D01*
X161264297Y-83030200D01*
X161121440Y-83101628D01*
X161050011Y-83244485D01*
X161050011Y-83458771D01*
X161121440Y-83601628D01*
X161978582Y-84887342D02*
X162050011Y-84744485D01*
X162050011Y-84458771D01*
X161978582Y-84315914D01*
X161835725Y-84244485D01*
X161264297Y-84244485D01*
X161121440Y-84315914D01*
X161050011Y-84458771D01*
X161050011Y-84744485D01*
X161121440Y-84887342D01*
X161264297Y-84958771D01*
X161407154Y-84958771D01*
X161550011Y-84244485D01*
X162050011Y-86244485D02*
X160550011Y-86244485D01*
X161978582Y-86244485D02*
X162050011Y-86101628D01*
X162050011Y-85815914D01*
X161978582Y-85673057D01*
X161907154Y-85601628D01*
X161764297Y-85530200D01*
X161335725Y-85530200D01*
X161192868Y-85601628D01*
X161121440Y-85673057D01*
X161050011Y-85815914D01*
X161050011Y-86101628D01*
X161121440Y-86244485D01*
X164600011Y-61815914D02*
X163100011Y-61815914D01*
X163100011Y-62387342D01*
X163171440Y-62530200D01*
X163242868Y-62601628D01*
X163385725Y-62673057D01*
X163600011Y-62673057D01*
X163742868Y-62601628D01*
X163814297Y-62530200D01*
X163885725Y-62387342D01*
X163885725Y-61815914D01*
X163600011Y-63958771D02*
X164600011Y-63958771D01*
X163600011Y-63315914D02*
X164385725Y-63315914D01*
X164528582Y-63387342D01*
X164600011Y-63530200D01*
X164600011Y-63744485D01*
X164528582Y-63887342D01*
X164457154Y-63958771D01*
X164600011Y-64887342D02*
X164528582Y-64744485D01*
X164385725Y-64673057D01*
X163100011Y-64673057D01*
X164528582Y-65387342D02*
X164600011Y-65530200D01*
X164600011Y-65815914D01*
X164528582Y-65958771D01*
X164385725Y-66030200D01*
X164314297Y-66030200D01*
X164171440Y-65958771D01*
X164100011Y-65815914D01*
X164100011Y-65601628D01*
X164028582Y-65458771D01*
X163885725Y-65387342D01*
X163814297Y-65387342D01*
X163671440Y-65458771D01*
X163600011Y-65601628D01*
X163600011Y-65815914D01*
X163671440Y-65958771D01*
X164528582Y-67244485D02*
X164600011Y-67101628D01*
X164600011Y-66815914D01*
X164528582Y-66673057D01*
X164385725Y-66601628D01*
X163814297Y-66601628D01*
X163671440Y-66673057D01*
X163600011Y-66815914D01*
X163600011Y-67101628D01*
X163671440Y-67244485D01*
X163814297Y-67315914D01*
X163957154Y-67315914D01*
X164100011Y-66601628D01*
X164457154Y-69958771D02*
X164528582Y-69887342D01*
X164600011Y-69673057D01*
X164600011Y-69530200D01*
X164528582Y-69315914D01*
X164385725Y-69173057D01*
X164242868Y-69101628D01*
X163957154Y-69030200D01*
X163742868Y-69030200D01*
X163457154Y-69101628D01*
X163314297Y-69173057D01*
X163171440Y-69315914D01*
X163100011Y-69530200D01*
X163100011Y-69673057D01*
X163171440Y-69887342D01*
X163242868Y-69958771D01*
X164600011Y-70815914D02*
X164528582Y-70673057D01*
X164457154Y-70601628D01*
X164314297Y-70530200D01*
X163885725Y-70530200D01*
X163742868Y-70601628D01*
X163671440Y-70673057D01*
X163600011Y-70815914D01*
X163600011Y-71030200D01*
X163671440Y-71173057D01*
X163742868Y-71244485D01*
X163885725Y-71315914D01*
X164314297Y-71315914D01*
X164457154Y-71244485D01*
X164528582Y-71173057D01*
X164600011Y-71030200D01*
X164600011Y-70815914D01*
X163600011Y-72601628D02*
X164600011Y-72601628D01*
X163600011Y-71958771D02*
X164385725Y-71958771D01*
X164528582Y-72030200D01*
X164600011Y-72173057D01*
X164600011Y-72387342D01*
X164528582Y-72530200D01*
X164457154Y-72601628D01*
X163600011Y-73315914D02*
X164600011Y-73315914D01*
X163742868Y-73315914D02*
X163671440Y-73387342D01*
X163600011Y-73530200D01*
X163600011Y-73744485D01*
X163671440Y-73887342D01*
X163814297Y-73958771D01*
X164600011Y-73958771D01*
X163600011Y-74458771D02*
X163600011Y-75030200D01*
X163100011Y-74673057D02*
X164385725Y-74673057D01*
X164528582Y-74744485D01*
X164600011Y-74887342D01*
X164600011Y-75030200D01*
X164528582Y-76101628D02*
X164600011Y-75958771D01*
X164600011Y-75673057D01*
X164528582Y-75530200D01*
X164385725Y-75458771D01*
X163814297Y-75458771D01*
X163671440Y-75530200D01*
X163600011Y-75673057D01*
X163600011Y-75958771D01*
X163671440Y-76101628D01*
X163814297Y-76173057D01*
X163957154Y-76173057D01*
X164100011Y-75458771D01*
X164600011Y-76815914D02*
X163600011Y-76815914D01*
X163885725Y-76815914D02*
X163742868Y-76887342D01*
X163671440Y-76958771D01*
X163600011Y-77101628D01*
X163600011Y-77244485D01*
X164600011Y-78887342D02*
X163100011Y-78887342D01*
X163671440Y-78887342D02*
X163600011Y-79030200D01*
X163600011Y-79315914D01*
X163671440Y-79458771D01*
X163742868Y-79530200D01*
X163885725Y-79601628D01*
X164314297Y-79601628D01*
X164457154Y-79530200D01*
X164528582Y-79458771D01*
X164600011Y-79315914D01*
X164600011Y-79030200D01*
X164528582Y-78887342D01*
X164600011Y-80458771D02*
X164528582Y-80315914D01*
X164457154Y-80244485D01*
X164314297Y-80173057D01*
X163885725Y-80173057D01*
X163742868Y-80244485D01*
X163671440Y-80315914D01*
X163600011Y-80458771D01*
X163600011Y-80673057D01*
X163671440Y-80815914D01*
X163742868Y-80887342D01*
X163885725Y-80958771D01*
X164314297Y-80958771D01*
X164457154Y-80887342D01*
X164528582Y-80815914D01*
X164600011Y-80673057D01*
X164600011Y-80458771D01*
X164600011Y-82244485D02*
X163814297Y-82244485D01*
X163671440Y-82173057D01*
X163600011Y-82030200D01*
X163600011Y-81744485D01*
X163671440Y-81601628D01*
X164528582Y-82244485D02*
X164600011Y-82101628D01*
X164600011Y-81744485D01*
X164528582Y-81601628D01*
X164385725Y-81530200D01*
X164242868Y-81530200D01*
X164100011Y-81601628D01*
X164028582Y-81744485D01*
X164028582Y-82101628D01*
X163957154Y-82244485D01*
X164600011Y-82958771D02*
X163600011Y-82958771D01*
X163885725Y-82958771D02*
X163742868Y-83030200D01*
X163671440Y-83101628D01*
X163600011Y-83244485D01*
X163600011Y-83387342D01*
X164600011Y-84530200D02*
X163100011Y-84530200D01*
X164528582Y-84530200D02*
X164600011Y-84387342D01*
X164600011Y-84101628D01*
X164528582Y-83958771D01*
X164457154Y-83887342D01*
X164314297Y-83815914D01*
X163885725Y-83815914D01*
X163742868Y-83887342D01*
X163671440Y-83958771D01*
X163600011Y-84101628D01*
X163600011Y-84387342D01*
X163671440Y-84530200D01*
X163100011Y-86173057D02*
X164600011Y-86673057D01*
X163100011Y-87173057D01*
X164457154Y-87673057D02*
X164528582Y-87744485D01*
X164600011Y-87673057D01*
X164528582Y-87601628D01*
X164457154Y-87673057D01*
X164600011Y-87673057D01*
X164600011Y-89173057D02*
X164600011Y-88315914D01*
X164600011Y-88744485D02*
X163100011Y-88744485D01*
X163314297Y-88601628D01*
X163457154Y-88458771D01*
X163528582Y-88315914D01*
X164457154Y-89815914D02*
X164528582Y-89887342D01*
X164600011Y-89815914D01*
X164528582Y-89744485D01*
X164457154Y-89815914D01*
X164600011Y-89815914D01*
X163100011Y-90815914D02*
X163100011Y-90958771D01*
X163171440Y-91101628D01*
X163242868Y-91173057D01*
X163385725Y-91244485D01*
X163671440Y-91315914D01*
X164028582Y-91315914D01*
X164314297Y-91244485D01*
X164457154Y-91173057D01*
X164528582Y-91101628D01*
X164600011Y-90958771D01*
X164600011Y-90815914D01*
X164528582Y-90673057D01*
X164457154Y-90601628D01*
X164314297Y-90530200D01*
X164028582Y-90458771D01*
X163671440Y-90458771D01*
X163385725Y-90530200D01*
X163242868Y-90601628D01*
X163171440Y-90673057D01*
X163100011Y-90815914D01*
X166150011Y-61387342D02*
X167150011Y-61673057D01*
X166435725Y-61958771D01*
X167150011Y-62244485D01*
X166150011Y-62530200D01*
X166150011Y-62958771D02*
X167150011Y-63244485D01*
X166435725Y-63530200D01*
X167150011Y-63815914D01*
X166150011Y-64101628D01*
X166150011Y-64530200D02*
X167150011Y-64815914D01*
X166435725Y-65101628D01*
X167150011Y-65387342D01*
X166150011Y-65673057D01*
X167007154Y-66244485D02*
X167078582Y-66315914D01*
X167150011Y-66244485D01*
X167078582Y-66173057D01*
X167007154Y-66244485D01*
X167150011Y-66244485D01*
X167078582Y-66887342D02*
X167150011Y-67030200D01*
X167150011Y-67315914D01*
X167078582Y-67458771D01*
X166935725Y-67530200D01*
X166864297Y-67530200D01*
X166721440Y-67458771D01*
X166650011Y-67315914D01*
X166650011Y-67101628D01*
X166578582Y-66958771D01*
X166435725Y-66887342D01*
X166364297Y-66887342D01*
X166221440Y-66958771D01*
X166150011Y-67101628D01*
X166150011Y-67315914D01*
X166221440Y-67458771D01*
X167078582Y-68744485D02*
X167150011Y-68601628D01*
X167150011Y-68315914D01*
X167078582Y-68173057D01*
X166935725Y-68101628D01*
X166364297Y-68101628D01*
X166221440Y-68173057D01*
X166150011Y-68315914D01*
X166150011Y-68601628D01*
X166221440Y-68744485D01*
X166364297Y-68815914D01*
X166507154Y-68815914D01*
X166650011Y-68101628D01*
X166150011Y-69458771D02*
X167150011Y-69458771D01*
X166292868Y-69458771D02*
X166221440Y-69530200D01*
X166150011Y-69673057D01*
X166150011Y-69887342D01*
X166221440Y-70030200D01*
X166364297Y-70101628D01*
X167150011Y-70101628D01*
X167078582Y-70744485D02*
X167150011Y-70887342D01*
X167150011Y-71173057D01*
X167078582Y-71315914D01*
X166935725Y-71387342D01*
X166864297Y-71387342D01*
X166721440Y-71315914D01*
X166650011Y-71173057D01*
X166650011Y-70958771D01*
X166578582Y-70815914D01*
X166435725Y-70744485D01*
X166364297Y-70744485D01*
X166221440Y-70815914D01*
X166150011Y-70958771D01*
X166150011Y-71173057D01*
X166221440Y-71315914D01*
X167150011Y-72244485D02*
X167078582Y-72101628D01*
X167007154Y-72030200D01*
X166864297Y-71958771D01*
X166435725Y-71958771D01*
X166292868Y-72030200D01*
X166221440Y-72101628D01*
X166150011Y-72244485D01*
X166150011Y-72458771D01*
X166221440Y-72601628D01*
X166292868Y-72673057D01*
X166435725Y-72744485D01*
X166864297Y-72744485D01*
X167007154Y-72673057D01*
X167078582Y-72601628D01*
X167150011Y-72458771D01*
X167150011Y-72244485D01*
X167150011Y-73387342D02*
X166150011Y-73387342D01*
X166435725Y-73387342D02*
X166292868Y-73458771D01*
X166221440Y-73530200D01*
X166150011Y-73673057D01*
X166150011Y-73815914D01*
X167078582Y-74244485D02*
X167150011Y-74387342D01*
X167150011Y-74673057D01*
X167078582Y-74815914D01*
X166935725Y-74887342D01*
X166864297Y-74887342D01*
X166721440Y-74815914D01*
X166650011Y-74673057D01*
X166650011Y-74458771D01*
X166578582Y-74315914D01*
X166435725Y-74244485D01*
X166364297Y-74244485D01*
X166221440Y-74315914D01*
X166150011Y-74458771D01*
X166150011Y-74673057D01*
X166221440Y-74815914D01*
X166150011Y-76173057D02*
X167150011Y-76173057D01*
X166150011Y-75530200D02*
X166935725Y-75530200D01*
X167078582Y-75601628D01*
X167150011Y-75744485D01*
X167150011Y-75958771D01*
X167078582Y-76101628D01*
X167007154Y-76173057D01*
X166150011Y-76887342D02*
X167150011Y-76887342D01*
X166292868Y-76887342D02*
X166221440Y-76958771D01*
X166150011Y-77101628D01*
X166150011Y-77315914D01*
X166221440Y-77458771D01*
X166364297Y-77530200D01*
X167150011Y-77530200D01*
X167150011Y-78458771D02*
X167078582Y-78315914D01*
X166935725Y-78244485D01*
X165650011Y-78244485D01*
X167078582Y-79601628D02*
X167150011Y-79458771D01*
X167150011Y-79173057D01*
X167078582Y-79030200D01*
X166935725Y-78958771D01*
X166364297Y-78958771D01*
X166221440Y-79030200D01*
X166150011Y-79173057D01*
X166150011Y-79458771D01*
X166221440Y-79601628D01*
X166364297Y-79673057D01*
X166507154Y-79673057D01*
X166650011Y-78958771D01*
X167150011Y-80958771D02*
X166364297Y-80958771D01*
X166221440Y-80887342D01*
X166150011Y-80744485D01*
X166150011Y-80458771D01*
X166221440Y-80315914D01*
X167078582Y-80958771D02*
X167150011Y-80815914D01*
X167150011Y-80458771D01*
X167078582Y-80315914D01*
X166935725Y-80244485D01*
X166792868Y-80244485D01*
X166650011Y-80315914D01*
X166578582Y-80458771D01*
X166578582Y-80815914D01*
X166507154Y-80958771D01*
X167078582Y-81601628D02*
X167150011Y-81744485D01*
X167150011Y-82030200D01*
X167078582Y-82173057D01*
X166935725Y-82244485D01*
X166864297Y-82244485D01*
X166721440Y-82173057D01*
X166650011Y-82030200D01*
X166650011Y-81815914D01*
X166578582Y-81673057D01*
X166435725Y-81601628D01*
X166364297Y-81601628D01*
X166221440Y-81673057D01*
X166150011Y-81815914D01*
X166150011Y-82030200D01*
X166221440Y-82173057D01*
X167150011Y-82887342D02*
X165650011Y-82887342D01*
X167150011Y-83530200D02*
X166364297Y-83530200D01*
X166221440Y-83458771D01*
X166150011Y-83315914D01*
X166150011Y-83101628D01*
X166221440Y-82958771D01*
X166292868Y-82887342D01*
X167078582Y-84815914D02*
X167150011Y-84673057D01*
X167150011Y-84387342D01*
X167078582Y-84244485D01*
X166935725Y-84173057D01*
X166364297Y-84173057D01*
X166221440Y-84244485D01*
X166150011Y-84387342D01*
X166150011Y-84673057D01*
X166221440Y-84815914D01*
X166364297Y-84887342D01*
X166507154Y-84887342D01*
X166650011Y-84173057D01*
X167150011Y-86173057D02*
X165650011Y-86173057D01*
X167078582Y-86173057D02*
X167150011Y-86030200D01*
X167150011Y-85744485D01*
X167078582Y-85601628D01*
X167007154Y-85530200D01*
X166864297Y-85458771D01*
X166435725Y-85458771D01*
X166292868Y-85530200D01*
X166221440Y-85601628D01*
X166150011Y-85744485D01*
X166150011Y-86030200D01*
X166221440Y-86173057D01*
X167007154Y-86887342D02*
X167078582Y-86958771D01*
X167150011Y-86887342D01*
X167078582Y-86815914D01*
X167007154Y-86887342D01*
X167150011Y-86887342D01*
X167078582Y-88244485D02*
X167150011Y-88101628D01*
X167150011Y-87815914D01*
X167078582Y-87673057D01*
X167007154Y-87601628D01*
X166864297Y-87530200D01*
X166435725Y-87530200D01*
X166292868Y-87601628D01*
X166221440Y-87673057D01*
X166150011Y-87815914D01*
X166150011Y-88101628D01*
X166221440Y-88244485D01*
X167150011Y-89101628D02*
X167078582Y-88958771D01*
X167007154Y-88887342D01*
X166864297Y-88815914D01*
X166435725Y-88815914D01*
X166292868Y-88887342D01*
X166221440Y-88958771D01*
X166150011Y-89101628D01*
X166150011Y-89315914D01*
X166221440Y-89458771D01*
X166292868Y-89530200D01*
X166435725Y-89601628D01*
X166864297Y-89601628D01*
X167007154Y-89530200D01*
X167078582Y-89458771D01*
X167150011Y-89315914D01*
X167150011Y-89101628D01*
X167150011Y-90244485D02*
X166150011Y-90244485D01*
X166292868Y-90244485D02*
X166221440Y-90315914D01*
X166150011Y-90458771D01*
X166150011Y-90673057D01*
X166221440Y-90815914D01*
X166364297Y-90887342D01*
X167150011Y-90887342D01*
X166364297Y-90887342D02*
X166221440Y-90958771D01*
X166150011Y-91101628D01*
X166150011Y-91315914D01*
X166221440Y-91458771D01*
X166364297Y-91530200D01*
X167150011Y-91530200D01*
D12*
X122919440Y-95135700D02*
X122871180Y-95135700D01*
X120120460Y-94434660D02*
X120120460Y-95135700D01*
X120120460Y-95135700D02*
X120369380Y-95135700D01*
X122919440Y-95135700D02*
X123120100Y-95135700D01*
X123120100Y-95135700D02*
X123120100Y-94434660D01*
X118699840Y-92657960D02*
X117499840Y-92657960D01*
X117499840Y-94407960D02*
X118699840Y-94407960D01*
X125627160Y-93816840D02*
X125627160Y-95016840D01*
X127377160Y-95016840D02*
X127377160Y-93816840D01*
X125900000Y-98302840D02*
X127300000Y-98302840D01*
X125900000Y-103402840D02*
X121750000Y-103402840D01*
X125900000Y-98252840D02*
X121750000Y-98252840D01*
X125900000Y-103402840D02*
X125900000Y-103257840D01*
X121750000Y-103402840D02*
X121750000Y-103257840D01*
X121750000Y-98252840D02*
X121750000Y-98397840D01*
X125900000Y-98252840D02*
X125900000Y-98302840D01*
X139925680Y-88551120D02*
X138925680Y-88551120D01*
X138925680Y-86851120D02*
X139925680Y-86851120D01*
X135582280Y-88403800D02*
X134582280Y-88403800D01*
X134582280Y-86703800D02*
X135582280Y-86703800D01*
X139664440Y-96042480D02*
X139664440Y-95280480D01*
X138140440Y-98328480D02*
X139664440Y-96042480D01*
X134076440Y-98328480D02*
X138140440Y-98328480D01*
X132552440Y-96042480D02*
X134076440Y-98328480D01*
X132552440Y-95280480D02*
X132552440Y-96042480D01*
X139664440Y-89184480D02*
X139664440Y-92232480D01*
X132552440Y-89184480D02*
X139664440Y-89184480D01*
X132552440Y-92232480D02*
X132552440Y-89184480D01*
X124521518Y-94065079D02*
X124616756Y-94017460D01*
X124711994Y-93922221D01*
X124854851Y-93779364D01*
X124950089Y-93731745D01*
X125045327Y-93731745D01*
X124997708Y-93969840D02*
X125092946Y-93922221D01*
X125188184Y-93826983D01*
X125235803Y-93636507D01*
X125235803Y-93303174D01*
X125188184Y-93112698D01*
X125092946Y-93017460D01*
X124997708Y-92969840D01*
X124807232Y-92969840D01*
X124711994Y-93017460D01*
X124616756Y-93112698D01*
X124569137Y-93303174D01*
X124569137Y-93636507D01*
X124616756Y-93826983D01*
X124711994Y-93922221D01*
X124807232Y-93969840D01*
X124997708Y-93969840D01*
X124235803Y-92969840D02*
X123616756Y-92969840D01*
X123950089Y-93350793D01*
X123807232Y-93350793D01*
X123711994Y-93398412D01*
X123664375Y-93446031D01*
X123616756Y-93541269D01*
X123616756Y-93779364D01*
X123664375Y-93874602D01*
X123711994Y-93922221D01*
X123807232Y-93969840D01*
X124092946Y-93969840D01*
X124188184Y-93922221D01*
X124235803Y-93874602D01*
X115099459Y-93699626D02*
X115575649Y-94032960D01*
X115099459Y-94271055D02*
X116099459Y-94271055D01*
X116099459Y-93890102D01*
X116051840Y-93794864D01*
X116004220Y-93747245D01*
X115908982Y-93699626D01*
X115766125Y-93699626D01*
X115670887Y-93747245D01*
X115623268Y-93794864D01*
X115575649Y-93890102D01*
X115575649Y-94271055D01*
X115670887Y-93128198D02*
X115718506Y-93223436D01*
X115766125Y-93271055D01*
X115861363Y-93318674D01*
X115908982Y-93318674D01*
X116004220Y-93271055D01*
X116051840Y-93223436D01*
X116099459Y-93128198D01*
X116099459Y-92937721D01*
X116051840Y-92842483D01*
X116004220Y-92794864D01*
X115908982Y-92747245D01*
X115861363Y-92747245D01*
X115766125Y-92794864D01*
X115718506Y-92842483D01*
X115670887Y-92937721D01*
X115670887Y-93128198D01*
X115623268Y-93223436D01*
X115575649Y-93271055D01*
X115480411Y-93318674D01*
X115289935Y-93318674D01*
X115194697Y-93271055D01*
X115147078Y-93223436D01*
X115099459Y-93128198D01*
X115099459Y-92937721D01*
X115147078Y-92842483D01*
X115194697Y-92794864D01*
X115289935Y-92747245D01*
X115480411Y-92747245D01*
X115575649Y-92794864D01*
X115623268Y-92842483D01*
X115670887Y-92937721D01*
X126736826Y-92543220D02*
X127070160Y-92067030D01*
X127308255Y-92543220D02*
X127308255Y-91543220D01*
X126927302Y-91543220D01*
X126832064Y-91590840D01*
X126784445Y-91638459D01*
X126736826Y-91733697D01*
X126736826Y-91876554D01*
X126784445Y-91971792D01*
X126832064Y-92019411D01*
X126927302Y-92067030D01*
X127308255Y-92067030D01*
X125832064Y-91543220D02*
X126308255Y-91543220D01*
X126355874Y-92019411D01*
X126308255Y-91971792D01*
X126213017Y-91924173D01*
X125974921Y-91924173D01*
X125879683Y-91971792D01*
X125832064Y-92019411D01*
X125784445Y-92114649D01*
X125784445Y-92352744D01*
X125832064Y-92447982D01*
X125879683Y-92495601D01*
X125974921Y-92543220D01*
X126213017Y-92543220D01*
X126308255Y-92495601D01*
X126355874Y-92447982D01*
X124801190Y-97780220D02*
X124801190Y-96780220D01*
X123753571Y-97684982D02*
X123801190Y-97732601D01*
X123944047Y-97780220D01*
X124039285Y-97780220D01*
X124182142Y-97732601D01*
X124277380Y-97637363D01*
X124325000Y-97542125D01*
X124372619Y-97351649D01*
X124372619Y-97208792D01*
X124325000Y-97018316D01*
X124277380Y-96923078D01*
X124182142Y-96827840D01*
X124039285Y-96780220D01*
X123944047Y-96780220D01*
X123801190Y-96827840D01*
X123753571Y-96875459D01*
X122801190Y-97780220D02*
X123372619Y-97780220D01*
X123086904Y-97780220D02*
X123086904Y-96780220D01*
X123182142Y-96923078D01*
X123277380Y-97018316D01*
X123372619Y-97065935D01*
X136300537Y-87935786D02*
X136252918Y-87983405D01*
X136205299Y-88126262D01*
X136205299Y-88221500D01*
X136252918Y-88364358D01*
X136348156Y-88459596D01*
X136443394Y-88507215D01*
X136633870Y-88554834D01*
X136776727Y-88554834D01*
X136967203Y-88507215D01*
X137062441Y-88459596D01*
X137157680Y-88364358D01*
X137205299Y-88221500D01*
X137205299Y-88126262D01*
X137157680Y-87983405D01*
X137110060Y-87935786D01*
X136205299Y-86983405D02*
X136205299Y-87554834D01*
X136205299Y-87269120D02*
X137205299Y-87269120D01*
X137062441Y-87364358D01*
X136967203Y-87459596D01*
X136919584Y-87554834D01*
X133079422Y-87195133D02*
X133127041Y-87147514D01*
X133174660Y-87004657D01*
X133174660Y-86909419D01*
X133127041Y-86766561D01*
X133031803Y-86671323D01*
X132936565Y-86623704D01*
X132746089Y-86576085D01*
X132603232Y-86576085D01*
X132412756Y-86623704D01*
X132317518Y-86671323D01*
X132222280Y-86766561D01*
X132174660Y-86909419D01*
X132174660Y-87004657D01*
X132222280Y-87147514D01*
X132269899Y-87195133D01*
X132269899Y-87576085D02*
X132222280Y-87623704D01*
X132174660Y-87718942D01*
X132174660Y-87957038D01*
X132222280Y-88052276D01*
X132269899Y-88099895D01*
X132365137Y-88147514D01*
X132460375Y-88147514D01*
X132603232Y-88099895D01*
X133174660Y-87528466D01*
X133174660Y-88147514D01*
X136858344Y-98564860D02*
X136858344Y-99374384D01*
X136810725Y-99469622D01*
X136763106Y-99517241D01*
X136667868Y-99564860D01*
X136477392Y-99564860D01*
X136382154Y-99517241D01*
X136334535Y-99469622D01*
X136286916Y-99374384D01*
X136286916Y-98564860D01*
X135286916Y-99564860D02*
X135858344Y-99564860D01*
X135572630Y-99564860D02*
X135572630Y-98564860D01*
X135667868Y-98707718D01*
X135763106Y-98802956D01*
X135858344Y-98850575D01*
M02*
