M48
METRIC,TZ
T1C0.400
T2C0.800
T3C0.899
T4C1.300
T5C1.320
T6C3.251
%
G90
G05
T1
X122596Y-92410
X123876Y-100940
X132766Y-88687
X141727Y-87727
T2
X118095Y-84804
X118095Y-106804
X120095Y-84804
X120095Y-106804
X122095Y-84804
X122095Y-106804
X124095Y-84804
X124095Y-106804
X126095Y-84804
X126095Y-106804
X128095Y-84804
X128095Y-106804
X130095Y-84804
X130095Y-106804
X132095Y-84804
X132095Y-106804
X134095Y-84804
X134095Y-106804
X136095Y-84804
X136095Y-106804
T3
X112014Y-89814
X112014Y-92354
X112014Y-94894
X112014Y-97434
X114554Y-91084
X114554Y-93624
X114554Y-96164
X114554Y-98704
T4
X118810Y-68057
X118810Y-73057
X148210Y-62857
X148210Y-78257
T5
X108600Y-67991
X108600Y-72991
T6
X105664Y-88328
X105664Y-100198
T0
M30
