G04 #@! TF.GenerationSoftware,KiCad,Pcbnew,no-vcs-found-7664~57~ubuntu16.10.1*
G04 #@! TF.CreationDate,2017-02-19T11:00:57+01:00*
G04 #@! TF.ProjectId,pulseboard,70756C7365626F6172642E6B69636164,rev?*
G04 #@! TF.FileFunction,Legend,Top*
G04 #@! TF.FilePolarity,Positive*
%FSLAX46Y46*%
G04 Gerber Fmt 4.6, Leading zero omitted, Abs format (unit mm)*
G04 Created by KiCad (PCBNEW no-vcs-found-7664~57~ubuntu16.10.1) date Sun Feb 19 11:00:57 2017*
%MOMM*%
%LPD*%
G01*
G04 APERTURE LIST*
%ADD10C,0.100000*%
%ADD11C,0.300000*%
%ADD12C,0.120000*%
%ADD13C,0.150000*%
%ADD14C,0.203200*%
G04 APERTURE END LIST*
D10*
D11*
X99158668Y-72504988D02*
X100658668Y-72504988D01*
X99158668Y-73362131D01*
X100658668Y-73362131D01*
X99158668Y-67379422D02*
X100658668Y-67379422D01*
X100658668Y-67950851D01*
X100587240Y-68093708D01*
X100515811Y-68165137D01*
X100372954Y-68236565D01*
X100158668Y-68236565D01*
X100015811Y-68165137D01*
X99944382Y-68093708D01*
X99872954Y-67950851D01*
X99872954Y-67379422D01*
X99219628Y-88187817D02*
X100719628Y-88187817D01*
X100719628Y-88759245D01*
X100648200Y-88902102D01*
X100576771Y-88973531D01*
X100433914Y-89044960D01*
X100219628Y-89044960D01*
X100076771Y-88973531D01*
X100005342Y-88902102D01*
X99933914Y-88759245D01*
X99933914Y-88187817D01*
X100219628Y-90330674D02*
X99219628Y-90330674D01*
X100219628Y-89687817D02*
X99433914Y-89687817D01*
X99291057Y-89759245D01*
X99219628Y-89902102D01*
X99219628Y-90116388D01*
X99291057Y-90259245D01*
X99362485Y-90330674D01*
X99219628Y-91259245D02*
X99291057Y-91116388D01*
X99433914Y-91044960D01*
X100719628Y-91044960D01*
X99291057Y-91759245D02*
X99219628Y-91902102D01*
X99219628Y-92187817D01*
X99291057Y-92330674D01*
X99433914Y-92402102D01*
X99505342Y-92402102D01*
X99648200Y-92330674D01*
X99719628Y-92187817D01*
X99719628Y-91973531D01*
X99791057Y-91830674D01*
X99933914Y-91759245D01*
X100005342Y-91759245D01*
X100148200Y-91830674D01*
X100219628Y-91973531D01*
X100219628Y-92187817D01*
X100148200Y-92330674D01*
X99291057Y-93616388D02*
X99219628Y-93473531D01*
X99219628Y-93187817D01*
X99291057Y-93044960D01*
X99433914Y-92973531D01*
X100005342Y-92973531D01*
X100148200Y-93044960D01*
X100219628Y-93187817D01*
X100219628Y-93473531D01*
X100148200Y-93616388D01*
X100005342Y-93687817D01*
X99862485Y-93687817D01*
X99719628Y-92973531D01*
X99219628Y-95473531D02*
X100219628Y-95473531D01*
X100719628Y-95473531D02*
X100648200Y-95402102D01*
X100576771Y-95473531D01*
X100648200Y-95544960D01*
X100719628Y-95473531D01*
X100576771Y-95473531D01*
X100219628Y-96187817D02*
X99219628Y-96187817D01*
X100076771Y-96187817D02*
X100148200Y-96259245D01*
X100219628Y-96402102D01*
X100219628Y-96616388D01*
X100148200Y-96759245D01*
X100005342Y-96830674D01*
X99219628Y-96830674D01*
X100219628Y-97544960D02*
X98719628Y-97544960D01*
X100148200Y-97544960D02*
X100219628Y-97687817D01*
X100219628Y-97973531D01*
X100148200Y-98116388D01*
X100076771Y-98187817D01*
X99933914Y-98259245D01*
X99505342Y-98259245D01*
X99362485Y-98187817D01*
X99291057Y-98116388D01*
X99219628Y-97973531D01*
X99219628Y-97687817D01*
X99291057Y-97544960D01*
X100219628Y-99544960D02*
X99219628Y-99544960D01*
X100219628Y-98902102D02*
X99433914Y-98902102D01*
X99291057Y-98973531D01*
X99219628Y-99116388D01*
X99219628Y-99330674D01*
X99291057Y-99473531D01*
X99362485Y-99544960D01*
X100219628Y-100044960D02*
X100219628Y-100616388D01*
X100719628Y-100259245D02*
X99433914Y-100259245D01*
X99291057Y-100330674D01*
X99219628Y-100473531D01*
X99219628Y-100616388D01*
D12*
X114900240Y-76190720D02*
X114900240Y-65340720D01*
X109800240Y-76190720D02*
X114900240Y-76190720D01*
X110100240Y-75690720D02*
X109800240Y-76190720D01*
X104700240Y-75690720D02*
X110100240Y-75690720D01*
X104950240Y-76190720D02*
X104700240Y-75690720D01*
X104900240Y-76190720D02*
X104950240Y-76190720D01*
X103000240Y-76190720D02*
X104900240Y-76190720D01*
X103250240Y-75690720D02*
X103000240Y-76190720D01*
X102300240Y-75690720D02*
X103250240Y-75690720D01*
X102300240Y-65340720D02*
X102300240Y-75690720D01*
X114900240Y-65340720D02*
X102300240Y-65340720D01*
D13*
X116509800Y-60457080D02*
X116509800Y-80657080D01*
X150509800Y-80657080D02*
X116509800Y-80657080D01*
X150509800Y-60457080D02*
X150509800Y-80657080D01*
X116509800Y-60457080D02*
X150509800Y-60457080D01*
X117099720Y-83603720D02*
X137099720Y-83603720D01*
X137099720Y-86003720D02*
X117099720Y-86003720D01*
X116899720Y-108003720D02*
X137099720Y-108003720D01*
X137099720Y-105603720D02*
X116899720Y-105603720D01*
X117099720Y-86003720D02*
X117099720Y-83803720D01*
X117099720Y-83803720D02*
X117099720Y-83603720D01*
X137099720Y-83603720D02*
X137099720Y-86003720D01*
X137099720Y-105603720D02*
X137099720Y-108003720D01*
X116899720Y-108003720D02*
X116899720Y-105603720D01*
X116504720Y-81198720D02*
X116479320Y-109367320D01*
X116479320Y-109367320D02*
X166466520Y-109367320D01*
X166466520Y-109367320D02*
X166466520Y-105328720D01*
X166466520Y-105328720D02*
X168015920Y-105328720D01*
X168015920Y-105328720D02*
X168015920Y-86405720D01*
X168015920Y-86405720D02*
X166517320Y-86405720D01*
X166517320Y-86405720D02*
X166517320Y-81224120D01*
X166517320Y-81224120D02*
X116580920Y-81224120D01*
X116580920Y-81224120D02*
X116530120Y-81274920D01*
X115824000Y-86639400D02*
X97790000Y-86639400D01*
X115824000Y-101879400D02*
X115824000Y-86639400D01*
X97790000Y-101879400D02*
X115824000Y-101879400D01*
X97790000Y-86639400D02*
X97790000Y-101879400D01*
X116042620Y-66808815D02*
X115042620Y-66808815D01*
X115042620Y-66427862D01*
X115090240Y-66332624D01*
X115137859Y-66285005D01*
X115233097Y-66237386D01*
X115375954Y-66237386D01*
X115471192Y-66285005D01*
X115518811Y-66332624D01*
X115566430Y-66427862D01*
X115566430Y-66808815D01*
X116042620Y-65285005D02*
X116042620Y-65856434D01*
X116042620Y-65570720D02*
X115042620Y-65570720D01*
X115185478Y-65665958D01*
X115280716Y-65761196D01*
X115328335Y-65856434D01*
X119462180Y-64405175D02*
X118462180Y-64405175D01*
X118462180Y-64024222D01*
X118509800Y-63928984D01*
X118557419Y-63881365D01*
X118652657Y-63833746D01*
X118795514Y-63833746D01*
X118890752Y-63881365D01*
X118938371Y-63928984D01*
X118985990Y-64024222D01*
X118985990Y-64405175D01*
X118557419Y-63452794D02*
X118509800Y-63405175D01*
X118462180Y-63309937D01*
X118462180Y-63071841D01*
X118509800Y-62976603D01*
X118557419Y-62928984D01*
X118652657Y-62881365D01*
X118747895Y-62881365D01*
X118890752Y-62928984D01*
X119462180Y-63500413D01*
X119462180Y-62881365D01*
D14*
X117777339Y-89418243D02*
X117777339Y-88148243D01*
X118261148Y-88148243D01*
X118382100Y-88208720D01*
X118442577Y-88269196D01*
X118503053Y-88390148D01*
X118503053Y-88571577D01*
X118442577Y-88692529D01*
X118382100Y-88753005D01*
X118261148Y-88813481D01*
X117777339Y-88813481D01*
X118926386Y-88148243D02*
X119712577Y-88148243D01*
X119289243Y-88632053D01*
X119470672Y-88632053D01*
X119591624Y-88692529D01*
X119652100Y-88753005D01*
X119712577Y-88873958D01*
X119712577Y-89176339D01*
X119652100Y-89297291D01*
X119591624Y-89357767D01*
X119470672Y-89418243D01*
X119107815Y-89418243D01*
X118986862Y-89357767D01*
X118926386Y-89297291D01*
D13*
X100290380Y-94592733D02*
X101004666Y-94592733D01*
X101147523Y-94640352D01*
X101242761Y-94735590D01*
X101290380Y-94878447D01*
X101290380Y-94973685D01*
X101290380Y-93592733D02*
X101290380Y-94164161D01*
X101290380Y-93878447D02*
X100290380Y-93878447D01*
X100433238Y-93973685D01*
X100528476Y-94068923D01*
X100576095Y-94164161D01*
M02*
