G04 #@! TF.GenerationSoftware,KiCad,Pcbnew,no-vcs-found-7664~57~ubuntu16.10.1*
G04 #@! TF.CreationDate,2017-02-19T11:00:57+01:00*
G04 #@! TF.ProjectId,pulseboard,70756C7365626F6172642E6B69636164,rev?*
G04 #@! TF.FileFunction,Copper,L2,Bot,Signal*
G04 #@! TF.FilePolarity,Positive*
%FSLAX46Y46*%
G04 Gerber Fmt 4.6, Leading zero omitted, Abs format (unit mm)*
G04 Created by KiCad (PCBNEW no-vcs-found-7664~57~ubuntu16.10.1) date Sun Feb 19 11:00:57 2017*
%MOMM*%
%LPD*%
G01*
G04 APERTURE LIST*
%ADD10C,0.100000*%
%ADD11O,3.960000X1.980000*%
%ADD12R,3.960000X1.980000*%
%ADD13C,1.800000*%
%ADD14R,0.800100X0.800100*%
%ADD15R,0.700000X1.300000*%
%ADD16R,1.300000X0.700000*%
%ADD17R,1.550000X0.600000*%
%ADD18O,1.360000X1.600000*%
%ADD19R,1.360000X1.600000*%
%ADD20R,1.000000X1.250000*%
%ADD21C,1.501140*%
%ADD22R,1.501140X1.501140*%
%ADD23C,3.649980*%
%ADD24R,1.016000X2.032000*%
%ADD25R,3.657600X2.032000*%
%ADD26C,0.800000*%
%ADD27C,0.500000*%
%ADD28C,0.250000*%
G04 APERTURE END LIST*
D10*
D11*
X108600240Y-72990720D03*
D12*
X108600240Y-67990720D03*
D13*
X118809800Y-68057080D03*
X118809800Y-73057080D03*
X148209800Y-62857080D03*
X148209800Y-78257080D03*
D14*
X120670280Y-93484700D03*
X122570280Y-93484700D03*
X121620280Y-95483680D03*
D15*
X117149840Y-93532960D03*
X119049840Y-93532960D03*
D16*
X126502160Y-95366840D03*
X126502160Y-93466840D03*
D17*
X121125000Y-98922840D03*
X121125000Y-100192840D03*
X121125000Y-101462840D03*
X121125000Y-102732840D03*
X126525000Y-102732840D03*
X126525000Y-101462840D03*
X126525000Y-100192840D03*
X126525000Y-98922840D03*
D18*
X118094720Y-106803720D03*
X120094720Y-106803720D03*
X122094720Y-106803720D03*
X124094720Y-106803720D03*
X126094720Y-106803720D03*
X128094720Y-106803720D03*
X130094720Y-106803720D03*
X132094720Y-106803720D03*
X134094720Y-106803720D03*
D19*
X136094720Y-106803720D03*
X136094720Y-84803720D03*
D18*
X134094720Y-84803720D03*
X132094720Y-84803720D03*
X130094720Y-84803720D03*
X128094720Y-84803720D03*
X126094720Y-84803720D03*
X124094720Y-84803720D03*
X122094720Y-84803720D03*
X120094720Y-84803720D03*
X118094720Y-84803720D03*
D20*
X138425680Y-87701120D03*
X140425680Y-87701120D03*
X134082280Y-87553800D03*
X136082280Y-87553800D03*
D21*
X114554000Y-98704400D03*
X112014000Y-97434400D03*
X114554000Y-96164400D03*
X112014000Y-94894400D03*
X114554000Y-93624400D03*
X112014000Y-92354400D03*
X114554000Y-91084400D03*
D22*
X112014000Y-89814400D03*
D23*
X105664000Y-88328500D03*
X105664000Y-100197920D03*
D24*
X133822440Y-90454480D03*
X138394440Y-90454480D03*
X136108440Y-90454480D03*
D25*
X136108440Y-97058480D03*
D26*
X141726920Y-87726520D03*
X132765800Y-88686640D03*
X122595640Y-92410280D03*
X123875800Y-100939600D03*
D27*
X140425680Y-87701120D02*
X141701520Y-87701120D01*
X141701520Y-87701120D02*
X141726920Y-87726520D01*
X133822440Y-90454480D02*
X133822440Y-89743280D01*
X133822440Y-89743280D02*
X132765800Y-88686640D01*
X133822440Y-90454480D02*
X133822440Y-87813640D01*
X133822440Y-87813640D02*
X134082280Y-87553800D01*
X122570280Y-93484700D02*
X122570280Y-92435640D01*
X122570280Y-92435640D02*
X122595640Y-92410280D01*
X123774200Y-100192840D02*
X122400000Y-100192840D01*
X126525000Y-100192840D02*
X123774200Y-100192840D01*
X123774200Y-100192840D02*
X123774200Y-100838000D01*
X123774200Y-100838000D02*
X123875800Y-100939600D01*
X122400000Y-100192840D02*
X121125000Y-100192840D01*
X126525000Y-100192840D02*
X126525000Y-98922840D01*
X126525000Y-101462840D02*
X126525000Y-100192840D01*
X126525000Y-102732840D02*
X126525000Y-101462840D01*
X126502160Y-93466840D02*
X126502160Y-92616840D01*
X125127200Y-91241880D02*
X119507000Y-91241880D01*
X126502160Y-92616840D02*
X125127200Y-91241880D01*
X119507000Y-91241880D02*
X118084600Y-92664280D01*
X118084600Y-96357440D02*
X120650000Y-98922840D01*
X118084600Y-92664280D02*
X118084600Y-96357440D01*
X120650000Y-98922840D02*
X121125000Y-98922840D01*
X126502160Y-93466840D02*
X133604080Y-93466840D01*
X133604080Y-93466840D02*
X136108440Y-90962480D01*
X136108440Y-90962480D02*
X136108440Y-90454480D01*
X136082280Y-87553800D02*
X136082280Y-90428320D01*
X136082280Y-90428320D02*
X136108440Y-90454480D01*
X136094720Y-84803720D02*
X136094720Y-87541360D01*
X136094720Y-87541360D02*
X136082280Y-87553800D01*
D28*
X114554000Y-96164400D02*
X117149840Y-93568560D01*
X117149840Y-93568560D02*
X117149840Y-93532960D01*
X133852920Y-98826320D02*
X130393440Y-95366840D01*
X130393440Y-95366840D02*
X126502160Y-95366840D01*
X133852920Y-105511920D02*
X133852920Y-98826320D01*
X134094720Y-106803720D02*
X134094720Y-105753720D01*
X134094720Y-105753720D02*
X133852920Y-105511920D01*
X121620280Y-95483680D02*
X126385320Y-95483680D01*
X126385320Y-95483680D02*
X126502160Y-95366840D01*
X119049840Y-93532960D02*
X120622020Y-93532960D01*
X120622020Y-93532960D02*
X120670280Y-93484700D01*
X120685560Y-93469420D02*
X120670280Y-93484700D01*
X118094720Y-106803720D02*
X118094720Y-104018120D01*
X118094720Y-104018120D02*
X120650000Y-101462840D01*
X120650000Y-101462840D02*
X121125000Y-101462840D01*
X120094720Y-105142320D02*
X121125000Y-104112040D01*
X121125000Y-104112040D02*
X121125000Y-103282840D01*
X121125000Y-103282840D02*
X121125000Y-102732840D01*
X120094720Y-106803720D02*
X120094720Y-105142320D01*
D27*
X138425680Y-87701120D02*
X138425680Y-86576120D01*
X138425680Y-86576120D02*
X144976560Y-80025240D01*
X144976560Y-80025240D02*
X146441640Y-80025240D01*
X118643400Y-80025240D02*
X146441640Y-80025240D01*
X146441640Y-80025240D02*
X148209800Y-78257080D01*
X114564160Y-84104480D02*
X118643400Y-80025240D01*
X114564160Y-90012774D02*
X114564160Y-84104480D01*
X114554000Y-91084400D02*
X114554000Y-90022934D01*
X114554000Y-90022934D02*
X114564160Y-90012774D01*
X138394440Y-90454480D02*
X138394440Y-87732360D01*
X138394440Y-87732360D02*
X138425680Y-87701120D01*
M02*
